<svg width="15" height="16" viewBox="0 0 15 16" fill="none" xmlns="http://www.w3.org/2000/svg">
<g clip-path="url(#clip0_4_290)">
<path d="M12.1332 15.4989C11.9226 15.4983 11.7141 15.4518 11.5199 15.3622C11.3257 15.2727 11.1495 15.1417 11.0017 14.977L7.49951 11.1558L3.99731 14.9795C3.77239 15.23 3.48394 15.4003 3.16955 15.4681C2.85517 15.536 2.52944 15.4984 2.23483 15.3602C1.93729 15.2288 1.68276 15.002 1.50447 14.7095C1.32618 14.4169 1.23241 14.0721 1.23542 13.7202V3.6239C1.23542 2.7951 1.53541 2.00024 2.06938 1.41419C2.60335 0.828141 3.32758 0.498901 4.08273 0.498901L10.9163 0.498901C11.2902 0.498901 11.6604 0.579732 12.0059 0.736778C12.3514 0.893824 12.6652 1.12401 12.9296 1.41419C13.194 1.70438 13.4038 2.04887 13.5469 2.42802C13.6899 2.80716 13.7636 3.21352 13.7636 3.6239V13.7202C13.7668 14.0718 13.6734 14.4164 13.4955 14.7089C13.3176 15.0015 13.0636 15.2284 12.7665 15.3602C12.5659 15.4522 12.3506 15.4994 12.1332 15.4989ZM4.08273 1.7489C3.62964 1.7489 3.19511 1.94645 2.87472 2.29808C2.55434 2.64971 2.37435 3.12662 2.37435 3.6239V13.7202C2.37414 13.8243 2.40206 13.9262 2.45458 14.0129C2.50711 14.0997 2.58187 14.1674 2.66944 14.2075C2.757 14.2476 2.85344 14.2584 2.94657 14.2384C3.03969 14.2184 3.12533 14.1685 3.19266 14.0952L7.10088 9.83203C7.20758 9.71562 7.35191 9.65028 7.50235 9.65028C7.6528 9.65028 7.79713 9.71562 7.90383 9.83203L11.8075 14.0939C11.8748 14.1673 11.9605 14.2171 12.0536 14.2371C12.1467 14.2571 12.2432 14.2464 12.3307 14.2062C12.4183 14.1661 12.493 14.0984 12.5456 14.0117C12.5981 13.9249 12.626 13.823 12.6258 13.7189V3.6239C12.6258 3.12662 12.4458 2.64971 12.1254 2.29808C11.805 1.94645 11.3705 1.7489 10.9174 1.7489H4.08273Z" fill="#1AA483"/>
</g>
<defs>
<clipPath id="clip0_4_290">
<rect width="15" height="15" fill="white" transform="translate(0 0.5)"/>
</clipPath>
</defs>
</svg>
