<svg width="15" height="16" viewBox="0 0 15 16" fill="none" xmlns="http://www.w3.org/2000/svg">
<g clip-path="url(#clip0_4_306)">
<path fill-rule="evenodd" clip-rule="evenodd" d="M10.2704 8.76923C10.2704 9.08786 10.0104 9.34615 9.68975 9.34615H5.31025C4.98957 9.34615 4.7296 9.08786 4.72961 8.76923C4.72961 8.4506 4.98957 8.19231 5.31025 8.19231H9.68975C10.0104 8.19231 10.2704 8.4506 10.2704 8.76923Z" fill="#1AA483"/>
<path fill-rule="evenodd" clip-rule="evenodd" d="M7.5 6.01659C7.82068 6.01659 8.08065 6.27489 8.08065 6.59352V10.9449C8.08065 11.2636 7.82068 11.5219 7.5 11.5219C7.17932 11.5219 6.91935 11.2636 6.91935 10.9449V6.59352C6.91935 6.27489 7.17932 6.01659 7.5 6.01659Z" fill="#1AA483"/>
<path fill-rule="evenodd" clip-rule="evenodd" d="M5.22624 1.15016C5.46708 0.758326 5.88949 0.5 6.36595 0.5H8.63405C9.11051 0.5 9.53292 0.758326 9.77376 1.15016L10.1985 1.84119C10.6181 1.87382 11.0161 1.90893 11.3634 1.94161C12.3748 2.03676 13.1628 2.83818 13.2422 3.84139C13.3489 5.18964 13.5 7.38298 13.5 9.00828C13.5 10.5422 13.3656 12.2838 13.2606 13.412C13.1687 14.4 12.3859 15.1754 11.3942 15.2691C10.3166 15.3709 8.71484 15.5 7.5 15.5C6.28516 15.5 4.68343 15.3709 3.60584 15.2691C2.61411 15.1754 1.83129 14.4 1.73937 13.412C1.6344 12.2838 1.5 10.5422 1.5 9.00828C1.5 7.38298 1.65111 5.18964 1.75779 3.84139C1.83717 2.83818 2.62518 2.03676 3.63659 1.94161C3.98395 1.90893 4.38188 1.87382 4.8015 1.84119L5.22624 1.15016ZM4.51831 3.02167C4.24372 3.0446 3.98316 3.06801 3.74606 3.09032C3.29956 3.13232 2.95091 3.48446 2.91551 3.93183C2.80889 5.27939 2.66129 7.4327 2.66129 9.00828C2.66129 10.4881 2.7917 12.1876 2.89573 13.3058C2.93605 13.7392 3.27728 14.079 3.71576 14.1205C4.7908 14.222 6.34489 14.3462 7.5 14.3462C8.65511 14.3462 10.2092 14.222 11.2842 14.1205C11.7227 14.079 12.0639 13.7392 12.1043 13.3058C12.2083 12.1876 12.3387 10.4881 12.3387 9.00828C12.3387 7.4327 12.1911 5.27939 12.0845 3.93183C12.0491 3.48446 11.7004 3.13232 11.2539 3.09032C11.0168 3.06801 10.7563 3.0446 10.4817 3.02167C10.4514 3.18523 10.3941 3.3413 10.3141 3.48207C10.0953 3.86671 9.68187 4.17299 9.15018 4.17299H5.84982C5.31813 4.17299 4.90468 3.86671 4.68593 3.48207C4.60588 3.3413 4.54857 3.18523 4.51831 3.02167ZM6.36595 1.65385C6.3247 1.65385 6.26366 1.67616 6.21732 1.75154L5.70119 2.59126C5.69359 2.60362 5.68714 2.61592 5.68168 2.6281C5.64005 2.72099 5.64869 2.82952 5.69697 2.91442C5.74305 2.99544 5.80047 3.01915 5.84982 3.01915H9.15018C9.19952 3.01915 9.25695 2.99544 9.30303 2.91442C9.35131 2.82952 9.35995 2.72099 9.31832 2.6281C9.31286 2.61592 9.3064 2.60362 9.29881 2.59126L8.78268 1.75154C8.73634 1.67616 8.6753 1.65385 8.63405 1.65385H6.36595Z" fill="#1AA483"/>
</g>
<defs>
<clipPath id="clip0_4_306">
<rect width="15" height="15" fill="white" transform="translate(0 0.5)"/>
</clipPath>
</defs>
</svg>
