<svg width="4" height="16" viewBox="0 0 4 16" fill="none" xmlns="http://www.w3.org/2000/svg">
<path d="M2.45508 2.75C2.25617 2.75 2.0654 2.67098 1.92475 2.53033C1.7841 2.38968 1.70508 2.19891 1.70508 2C1.70508 1.80109 1.7841 1.61032 1.92475 1.46967C2.0654 1.32902 2.25617 1.25 2.45508 1.25C2.65399 1.25 2.84476 1.32902 2.98541 1.46967C3.12606 1.61032 3.20508 1.80109 3.20508 2C3.20508 2.19891 3.12606 2.38968 2.98541 2.53033C2.84476 2.67098 2.65399 2.75 2.45508 2.75ZM2.45508 8.75C2.25617 8.75 2.0654 8.67098 1.92475 8.53033C1.7841 8.38968 1.70508 8.19891 1.70508 8C1.70508 7.80109 1.7841 7.61032 1.92475 7.46967C2.0654 7.32902 2.25617 7.25 2.45508 7.25C2.65399 7.25 2.84476 7.32902 2.98541 7.46967C3.12606 7.61032 3.20508 7.80109 3.20508 8C3.20508 8.19891 3.12606 8.38968 2.98541 8.53033C2.84476 8.67098 2.65399 8.75 2.45508 8.75ZM2.45508 14.75C2.25617 14.75 2.0654 14.671 1.92475 14.5303C1.7841 14.3897 1.70508 14.1989 1.70508 14C1.70508 13.8011 1.7841 13.6103 1.92475 13.4697C2.0654 13.329 2.25617 13.25 2.45508 13.25C2.65399 13.25 2.84476 13.329 2.98541 13.4697C3.12606 13.6103 3.20508 13.8011 3.20508 14C3.20508 14.1989 3.12606 14.3897 2.98541 14.5303C2.84476 14.671 2.65399 14.75 2.45508 14.75Z" stroke="#353535" stroke-opacity="0.3" stroke-width="1.5" stroke-linecap="round" stroke-linejoin="round"/>
</svg>
