<svg width="15" height="16" viewBox="0 0 15 16" fill="none" xmlns="http://www.w3.org/2000/svg">
<g clip-path="url(#clip0_4_286)">
<path d="M14.2271 1.77702C14.2264 1.77082 14.2263 1.7644 14.2251 1.75834C14.2214 1.73961 14.2139 1.72172 14.2062 1.70391C14.2044 1.69938 14.2038 1.69473 14.2016 1.69027C14.19 1.66721 14.1748 1.64573 14.1559 1.62641C14.1528 1.62306 14.149 1.62017 14.1456 1.61689C14.1449 1.61654 14.1447 1.6158 14.1442 1.61514C14.1439 1.61472 14.143 1.61469 14.1426 1.61403C14.1401 1.61183 14.1377 1.60931 14.1352 1.60736C14.1133 1.58948 14.0894 1.5765 14.064 1.56688C14.0583 1.56482 14.0523 1.56446 14.0464 1.56272C14.0246 1.55606 14.0025 1.55191 13.9798 1.5514C13.9698 1.55115 13.9603 1.55238 13.9504 1.55343C13.9314 1.55508 13.9129 1.55869 13.8943 1.56474C13.8845 1.56791 13.8753 1.57118 13.8659 1.57558C13.8598 1.57846 13.8533 1.5793 13.8474 1.58268L0.430618 8.77939C0.335205 8.83075 0.281877 8.93634 0.297901 9.04358C0.313926 9.15083 0.395359 9.23651 0.501608 9.25776L5.23841 10.2024L7.13986 13.9752C7.14025 13.9783 7.14194 13.9812 7.14257 13.9843C7.14595 14.0047 7.15141 14.024 7.15964 14.0427C7.1638 14.0522 7.16781 14.0612 7.17312 14.0701C7.18573 14.0918 7.20134 14.111 7.2198 14.128C7.22343 14.1312 7.22482 14.1359 7.22869 14.139C7.2298 14.14 7.23132 14.1407 7.2326 14.1414C7.23719 14.1451 7.24272 14.1475 7.2478 14.151C7.26361 14.1619 7.27955 14.1714 7.29663 14.1784C7.29936 14.1794 7.30164 14.1817 7.30462 14.1827C7.30911 14.1843 7.31352 14.1838 7.31794 14.1852C7.33589 14.1905 7.35381 14.1941 7.37221 14.1956C7.37959 14.1961 7.38663 14.1972 7.39411 14.1971C7.41817 14.1969 7.44238 14.1946 7.46553 14.1877L7.46627 14.1875C7.46726 14.1872 7.46809 14.1864 7.46908 14.1861C7.47334 14.1851 7.4776 14.1841 7.48178 14.1829C7.54999 14.1626 7.60249 14.1138 7.63409 14.0533L9.82238 11.4247L13.23 12.4335C13.2781 12.4476 13.3289 12.4473 13.3759 12.4333C13.4018 12.4257 13.4269 12.4136 13.4498 12.3977C13.5137 12.3531 13.5541 12.2816 13.559 12.2035L14.2288 1.82584C14.2295 1.81652 14.2296 1.80709 14.2292 1.79757C14.2291 1.79359 14.2283 1.78982 14.228 1.78615C14.2279 1.78322 14.2275 1.78012 14.2271 1.77702ZM11.8417 4.19537L7.22292 10.2931C7.21543 10.3031 7.21043 10.3142 7.20455 10.3251C7.20222 10.329 7.19975 10.3324 7.19799 10.3364C7.1945 10.3436 7.1915 10.3507 7.18865 10.3582C7.18598 10.3654 7.18435 10.3726 7.18224 10.3799C7.17752 10.3974 7.17442 10.4149 7.17333 10.433C7.17305 10.4365 7.17181 10.4396 7.17177 10.4431C7.17182 10.4441 7.17098 10.4449 7.17103 10.446L7.14708 12.8477L5.72675 10.0296L11.8417 4.19537ZM7.66939 13.2081L7.68253 10.7917L8.92926 11.1609L9.28587 11.2664L8.47129 12.2448L7.66939 13.2081ZM12.4249 2.92877L5.33111 9.69687L1.30407 8.8939L12.4249 2.92877ZM13.0674 11.8497L8.54215 10.5103L7.85678 10.3073L13.6615 2.64345L13.0674 11.8497Z" fill="#1AA483" stroke="#1AA483" stroke-width="0.4"/>
</g>
<defs>
<clipPath id="clip0_4_286">
<rect width="15" height="15" fill="white" transform="translate(0 0.5)"/>
</clipPath>
</defs>
</svg>
